<?xml version="1.0" encoding="UTF-8" standalone="no"?>
<!DOCTYPE svg PUBLIC "-//W3C//DTD SVG 1.1//EN"
 "http://www.w3.org/Graphics/SVG/1.1/DTD/svg11.dtd">
<!-- Generated by graphviz version 2.42.3 (0)
 -->
<!-- Title: G Pages: 1 -->
<svg width="138pt" height="128pt"
 viewBox="0.00 0.00 138.00 128.00" xmlns="http://www.w3.org/2000/svg" xmlns:xlink="http://www.w3.org/1999/xlink">
<g id="graph0" class="graph" transform="scale(1 1) rotate(0) translate(4 124)">
<title>G</title>
<polygon fill="white" stroke="transparent" points="-4,4 -4,-124 134,-124 134,4 -4,4"/>
<!-- Block_0_70_5 -->
<g id="node1" class="node">
<title>Block_0_70_5</title>
<polygon fill="none" stroke="black" points="9,-83.5 9,-119.5 121,-119.5 121,-83.5 9,-83.5"/>
<text text-anchor="middle" x="65" y="-97.8" font-family="Times,serif" font-size="14.00">Block_0_70_5</text>
</g>
<!-- Block_0_159_22 -->
<g id="node2" class="node">
<title>Block_0_159_22</title>
<polygon fill="none" stroke="black" points="0,-0.5 0,-46.5 130,-46.5 130,-0.5 0,-0.5"/>
<text text-anchor="start" x="8" y="-31.3" font-family="Times,serif" font-size="14.00">Block_0_159_22</text>
<polyline fill="none" stroke="black" points="0,-23.5 130,-23.5 "/>
<text text-anchor="middle" x="65" y="-8.3" font-family="Times,serif" font-size="14.00">Label: block</text>
</g>
<!-- Block_0_70_5&#45;&gt;Block_0_159_22 -->
<g id="edge1" class="edge">
<title>Block_0_70_5&#45;&gt;Block_0_159_22</title>
<path fill="none" stroke="black" d="M65,-83.25C65,-75.36 65,-65.75 65,-56.6"/>
<polygon fill="black" stroke="black" points="68.5,-56.59 65,-46.59 61.5,-56.59 68.5,-56.59"/>
</g>
</g>
</svg>
